<svg width="354.7704833984375px" height="120.8px" xmlns="http://www.w3.org/2000/svg" viewBox="72.61475830078126 14.600000000000001 354.7704833984375 120.8" style="background: rgba(0, 0, 0, 0);" preserveAspectRatio="xMidYMid"><defs><filter id="editing-metal-beveled"><feGaussianBlur stdDeviation="4" in="SourceAlpha" result="blur"></feGaussianBlur><feSpecularLighting surfaceScale="5" specularConstant="0.8" specularExponent="7.5" lighting-color="#fff" in="blur" result="specular"><fePointLight x="-250" y="-50" z="300"></fePointLight></feSpecularLighting><feComposite operator="in" in="specular" in2="SourceAlpha" result="comp"></feComposite><feComposite in="SourceGraphic" in2="comp" operator="arithmetic" k1="0" k2="1" k3="1" k4="0"></feComposite></filter></defs><g filter="url(#editing-metal-beveled)"><g transform="translate(127.16539216041565, 99)"><path d="M14.14 0L0.51 0L7.81-38.91L8.51-42.24L22.21-42.24L14.14 0ZM40.13-3.78L40.13-3.78L40.13-3.78Q38.40 1.28 31.74 1.28L31.74 1.28L31.74 1.28Q26.82 1.28 23.42-4.61L23.42-4.61L23.42-4.61Q19.97-10.50 19.33-20.10L19.33-20.10L19.33-20.10Q26.37-32.96 31.23-38.27L31.23-38.27L31.23-38.27Q35.90-43.33 40.77-43.33L40.77-43.33L40.77-43.33Q43.39-43.33 45.28-41.92L45.28-41.92L45.28-41.92Q47.17-40.51 47.62-38.27L47.62-38.27L47.62-38.27Q45.44-37.38 44.42-36.67L44.42-36.67L44.42-36.67Q41.86-34.75 38.40-30.46L38.40-30.46L32.58-23.49L32.58-23.49Q31.17-21.82 30.59-21.06L30.59-21.06L30.59-21.06Q31.55-15.68 34.43-10.37L34.43-10.37L34.43-10.37Q37.18-5.31 40.13-3.78ZM60.93-3.52L60.93-3.52L60.93-3.52Q58.94 1.28 52.61 1.28L52.61 1.28L52.61 1.28Q49.34 1.28 47.30-0.96L47.30-0.96L47.30-0.96Q45.57-2.94 45.57-4.93L45.57-4.93L45.57-4.93Q45.57-10.11 47.94-20.22L47.94-20.22L50.30-32.64L63.30-33.92L59.39-13.70L59.39-13.70Q58.30-8.96 58.30-7.30L58.30-7.30L58.30-7.30Q58.30-3.65 60.93-3.52ZM51.46-41.54L51.46-41.54L51.46-41.54Q51.46-44.03 53.54-45.38L53.54-45.38L53.54-45.38Q55.62-46.72 58.62-46.72L58.62-46.72L58.62-46.72Q61.63-46.72 63.46-45.38L63.46-45.38L63.46-45.38Q65.28-44.03 65.28-41.54L65.28-41.54L65.28-41.54Q65.28-39.04 63.26-37.76L63.26-37.76L63.26-37.76Q61.25-36.48 58.24-36.48L58.24-36.48L58.24-36.48Q55.23-36.48 53.34-37.76L53.34-37.76L53.34-37.76Q51.46-39.04 51.46-41.54ZM85.50-22.46L85.50-22.46L85.50-22.46Q86.40-24.83 86.40-26.88L86.40-26.88L86.40-26.88Q86.40-30.66 83.33-30.66L83.33-30.66L83.33-30.66Q81.73-30.66 80.42-29.22L80.42-29.22L80.42-29.22Q79.10-27.78 79.10-25.98L79.10-25.98L79.10-25.98Q79.10-24.70 80.13-23.68L80.13-23.68L80.13-23.68Q81.60-22.27 85.38-19.97L85.38-19.97L85.38-19.97Q89.15-17.66 90.59-15.78L90.59-15.78L90.59-15.78Q92.03-13.89 92.03-11.30L92.03-11.30L92.03-11.30Q92.03-8.70 90.78-6.34L90.78-6.34L90.78-6.34Q89.54-3.97 87.30-2.30L87.30-2.30L87.30-2.30Q82.50 1.28 74.82 1.28L74.82 1.28L74.82 1.28Q70.66 1.28 67.46-0.90L67.46-0.90L67.46-0.90Q64.26-3.01 64.26-5.50L64.26-5.50L64.26-5.50Q64.26-8 66.08-9.47L66.08-9.47L66.08-9.47Q67.90-10.94 70.59-10.94L70.59-10.94L70.59-10.94Q73.28-10.94 74.94-9.92L74.94-9.92L74.94-9.92Q74.11-7.81 74.11-6.40L74.11-6.40L74.11-6.40Q74.11-2.18 77.70-2.18L77.70-2.18L77.70-2.18Q79.23-2.18 80.26-3.14L80.26-3.14L80.26-3.14Q81.28-4.10 81.28-5.76L81.28-5.76L81.28-5.76Q81.28-9.02 75.78-12.48L75.78-12.48L75.78-12.48Q71.30-15.42 70.27-16.58L70.27-16.58L70.27-16.58Q68.54-18.62 68.54-21.18L68.54-21.18L68.54-21.18Q68.54-23.74 69.76-26.18L69.76-26.18L69.76-26.18Q70.98-28.61 73.22-30.34L73.22-30.34L73.22-30.34Q77.89-33.92 86.02-33.92L86.02-33.92L86.02-33.92Q90.18-33.92 92.64-32.26L92.64-32.26L92.64-32.26Q95.10-30.59 95.10-27.78L95.10-27.78L95.10-27.78Q95.10-24.96 93.41-23.36L93.41-23.36L93.41-23.36Q91.71-21.76 88.64-21.76L88.64-21.76L88.64-21.76Q86.53-21.76 85.50-22.46ZM129.66-7.10L129.66-7.10L129.66-7.10Q129.66-4.29 132.54-3.46L132.54-3.46L132.54-3.46Q131.84-1.09 129.09 0.19L129.09 0.19L129.09 0.19Q126.78 1.28 124.26 1.28L124.26 1.28L124.26 1.28Q121.73 1.28 120.42 0.61L120.42 0.61L120.42 0.61Q119.10-0.06 118.40-1.15L118.40-1.15L118.40-1.15Q117.25-2.82 117.25-5.95L117.25-5.95L117.25-5.95Q117.25-7.81 118.27-12.93L118.27-12.93L119.17-17.79L119.17-17.79Q120.26-23.36 120.26-25.41L120.26-25.41L120.26-25.41Q120.26-28.99 118.27-28.99L118.27-28.99L118.27-28.99Q115.78-28.99 114.18-25.34L114.18-25.34L114.18-25.34Q113.54-23.94 113.09-21.82L113.09-21.82L108.74 0L95.87 1.28L104.90-44.80L117.76-46.08L117.25-43.52L117.25-43.52Q115.46-33.66 113.92-30.34L113.92-30.34L113.92-30.34Q117.50-33.92 124.10-33.92L124.10-33.92L124.10-33.92Q131.07-33.92 132.35-29.31L132.35-29.31L132.35-29.31Q132.80-27.84 132.80-26.56L132.80-26.56L132.80-26.56Q132.80-25.28 132.70-24.29L132.70-24.29L132.70-24.29Q132.61-23.30 132.29-21.50L132.29-21.50L131.46-16.90L129.98-9.66L129.98-9.66Q129.66-8.19 129.66-7.10ZM151.68 1.28L151.68 1.28L151.68 1.28Q137.60 1.28 137.60-11.97L137.60-11.97L137.60-11.97Q137.60-21.38 142.78-27.46L142.78-27.46L142.78-27.46Q148.29-33.92 157.82-33.92L157.82-33.92L157.82-33.92Q164.74-33.92 168.26-30.72L168.26-30.72L168.26-30.72Q171.78-27.52 171.78-20.80L171.78-20.80L171.78-20.80Q171.78-10.56 166.27-4.61L166.27-4.61L166.27-4.61Q160.90 1.28 151.68 1.28ZM153.34-26.56L153.34-26.56L153.34-26.56Q152.58-24.83 151.97-22.24L151.97-22.24L151.97-22.24Q151.36-19.65 150.59-15.55L150.59-15.55L150.59-15.55Q149.82-11.46 149.82-6.40L149.82-6.40L149.82-6.40Q149.82-4.74 150.37-3.65L150.37-3.65L150.37-3.65Q150.91-2.56 152.38-2.56L152.38-2.56L152.38-2.56Q153.86-2.56 154.78-3.26L154.78-3.26L154.78-3.26Q155.71-3.97 156.42-5.63L156.42-5.63L156.42-5.63Q157.70-8.58 158.72-14.05L158.72-14.05L158.72-14.05Q159.74-19.52 159.84-21.89L159.84-21.89L159.84-21.89Q159.94-24.26 159.94-26.02L159.94-26.02L159.94-26.02Q159.94-27.78 159.42-28.93L159.42-28.93L159.42-28.93Q158.91-30.08 157.47-30.08L157.47-30.08L157.47-30.08Q156.03-30.08 155.07-29.18L155.07-29.18L155.07-29.18Q154.11-28.29 153.34-26.56ZM189.50 1.28L189.50 1.28L189.50 1.28Q175.42 1.28 175.42-11.97L175.42-11.97L175.42-11.97Q175.42-21.38 180.61-27.46L180.61-27.46L180.61-27.46Q186.11-33.92 195.65-33.92L195.65-33.92L195.65-33.92Q202.56-33.92 206.08-30.72L206.08-30.72L206.08-30.72Q209.60-27.52 209.60-20.80L209.60-20.80L209.60-20.80Q209.60-10.56 204.10-4.61L204.10-4.61L204.10-4.61Q198.72 1.28 189.50 1.28ZM191.17-26.56L191.17-26.56L191.17-26.56Q190.40-24.83 189.79-22.24L189.79-22.24L189.79-22.24Q189.18-19.65 188.42-15.55L188.42-15.55L188.42-15.55Q187.65-11.46 187.65-6.40L187.65-6.40L187.65-6.40Q187.65-4.74 188.19-3.65L188.19-3.65L188.19-3.65Q188.74-2.56 190.21-2.56L190.21-2.56L190.21-2.56Q191.68-2.56 192.61-3.26L192.61-3.26L192.61-3.26Q193.54-3.97 194.24-5.63L194.24-5.63L194.24-5.63Q195.52-8.58 196.54-14.05L196.54-14.05L196.54-14.05Q197.57-19.52 197.66-21.89L197.66-21.89L197.66-21.89Q197.76-24.26 197.76-26.02L197.76-26.02L197.76-26.02Q197.76-27.78 197.25-28.93L197.25-28.93L197.25-28.93Q196.74-30.08 195.30-30.08L195.30-30.08L195.30-30.08Q193.86-30.08 192.90-29.18L192.90-29.18L192.90-29.18Q191.94-28.29 191.17-26.56ZM233.41-17.98L233.41-17.98L233.41-17.98Q235.71-22.08 235.71-26.24L235.71-26.24L235.71-26.24Q235.71-28.99 233.73-28.99L233.73-28.99L233.73-28.99Q232.19-28.99 230.59-26.37L230.59-26.37L230.59-26.37Q228.93-23.74 228.42-20.35L228.42-20.35L225.09 0L211.84 1.28L218.37-32.64L228.93-33.92L227.78-27.46L227.78-27.46Q230.91-33.92 237.95-33.92L237.95-33.92L237.95-33.92Q241.66-33.92 243.68-32L243.68-32L243.68-32Q245.70-30.08 245.70-26.14L245.70-26.14L245.70-26.14Q245.70-22.21 243.10-19.71L243.10-19.71L243.10-19.71Q240.51-17.22 236.10-17.22L236.10-17.22L236.10-17.22Q234.18-17.22 233.41-17.98Z" fill="#444"></path></g></g><style>text {
  font-size: 64px;
  font-family: Arial Black;
  dominant-baseline: central;
  text-anchor: middle;
}</style></svg>